{"title":"House Of Cards 2013 HDRiP XViD UNiQUE","uid":8855074,"size":1510924288,"categoryP":"video","categoryS":"movies","magnet":"?xt=urn:btih:72ace492d911ca76c0f8ff2d01c78a846cf4644d&amp;dn=House+Of+Cards+2013+HDRiP+XViD+UNiQUE&amp;tr=udp%3A%2F%2Ftracker.openbittorrent.com%3A80&amp;tr=udp%3A%2F%2Fopen.demonii.com%3A1337&amp;tr=udp%3A%2F%2Ftracker.coppersurfer.tk%3A6969&amp;tr=udp%3A%2F%2Fexodus.desync.com%3A6969","seeders":2,"leechers":1,"uploader":"HeroMaster","files":-1,"time":1377631026,"description":"House Of Cards 2013 HDRiP XViD UNiQUE\n\nFormat                                   : AVI\nFormat/Info                              : Audio Video Interleave\nFile size                                : 1.40 GiB\nDuration                                 : 1h 48mn\nOverall bit rate                         : 1 839 Kbps\nWriting application                      : VirtualDubMod 1.5.10.2 (build 2540/release)\nWriting library                          : VirtualDubMod build 2540/release\n\nVideo\nID                                       : 0\nFormat                                   : MPEG-4 Visual\nFormat profile                           : Advanced Simple@L5\nFormat settings, BVOP                    : 2\nFormat settings, QPel                    : No\nFormat settings, GMC                     : No warppoints\nFormat settings, Matrix                  : Default (H.263)\nMuxing mode                              : Packed bitstream\nCodec ID                                 : XVID\nCodec ID/Hint                            : XviD\nDuration                                 : 1h 48mn\nBit rate                                 : 1 638 Kbps\nWidth                                    : 720 pixels\nHeight                                   : 400 pixels\nDisplay aspect ratio                     : 16:9\nFrame rate                               : 23.976 fps\nColor space                              : YUV\nChroma subsampling                       : 4:2:0\nBit depth                                : 8 bits\nScan type                                : Progressive\nCompression mode                         : Lossy\nBits/(Pixel*Frame)                       : 0.237\nStream size                              : 1.25 GiB (89%)\nWriting library                          : XviD 64\n\nAudio\nID                                       : 1\nFormat                                   : AC-3\nFormat/Info                              : Audio Coding 3\nMode extension                           : CM (complete main)\nFormat settings, Endianness              : Big\nCodec ID                                 : 2000\nDuration                                 : 1h 48mn\nBit rate mode                            : Constant\nBit rate                                 : 192 Kbps\nChannel(s)                               : 2 channels\nChannel positions                        : Front: L R\nSampling rate                            : 48.0 KHz\nBit depth                                : 16 bits\nCompression mode                         : Lossy\nStream size                              : 150 MiB (10%)\nAlignment                                : Split accross interleaves\nInterleave, duration                     : 42 ms (1.00 video frame)\nInterleave, preload duration             : 500 ms\n\n &lt;a href=&quot;\nhttp://www.imdb.com/title/tt2422212/&quot; rel=&quot;nofollow&quot; target=&quot;_NEW&quot;&gt;\nhttp://www.imdb.com/title/tt2422212/&lt;/a&gt;\n\n\nIn elite firm of assassins must face their own mortality as they are hunted down one by one by a mysterious assailant. Caught up in the drama is a disgraced journalist who is more connected to the assassins' world than he could ever know. \n\n\nSource Used      1080p - Thanks\n\n\nGreets now going out to !\n\n\nJUSTiCE,MiLLENiUM,KiSSMYACE,FooKaS and the rest can just KMA\n\n\nPoster:\n\n &lt;a href=&quot;\nhttp://i.imgur.com/DIKh4pY.jpg&quot; rel=&quot;nofollow&quot; target=&quot;_NEW&quot;&gt;\nhttp://i.imgur.com/DIKh4pY.jpg&lt;/a&gt;\n\n\nScreenshots:\n\n &lt;a href=&quot;\nhttp://i.imgur.com/bKjzV7X.jpg&quot; rel=&quot;nofollow&quot; target=&quot;_NEW&quot;&gt;\nhttp://i.imgur.com/bKjzV7X.jpg&lt;/a&gt;\n\n\nSEED AND ENJOY!","torrent":{"xt":"urn:btih:72ace492d911ca76c0f8ff2d01c78a846cf4644d","amp;dn":"House+Of+Cards+2013+HDRiP+XViD+UNiQUE","amp;tr":["udp%3A%2F%2Ftracker.openbittorrent.com%3A80","udp%3A%2F%2Fopen.demonii.com%3A1337","udp%3A%2F%2Ftracker.coppersurfer.tk%3A6969","udp%3A%2F%2Fexodus.desync.com%3A6969"],"infoHash":"72ace492d911ca76c0f8ff2d01c78a846cf4644d","infoHashBuffer":{"type":"Buffer","data":[114,172,228,146,217,17,202,118,192,248,255,45,1,199,138,132,108,244,100,77]},"announce":[],"urlList":[]}}